<svg width="38" height="38" viewBox="0 0 38 38" fill="none" xmlns="http://www.w3.org/2000/svg">
<path d="M29.3381 7.72073H27.794V4.6325C27.794 4.22297 27.6313 3.83022 27.3418 3.54064C27.0522 3.25106 26.6594 3.08838 26.2499 3.08838C25.8404 3.08838 25.4476 3.25106 25.158 3.54064C24.8685 3.83022 24.7058 4.22297 24.7058 4.6325V7.72073H12.3528V4.6325C12.3528 4.22297 12.1902 3.83022 11.9006 3.54064C11.611 3.25106 11.2182 3.08838 10.8087 3.08838C10.3992 3.08838 10.0064 3.25106 9.71687 3.54064C9.42729 3.83022 9.2646 4.22297 9.2646 4.6325V7.72073H7.72049C6.49191 7.72073 5.31365 8.20878 4.44492 9.07752C3.57618 9.94625 3.08813 11.1245 3.08813 12.3531V13.8972H33.9705V12.3531C33.9705 11.1245 33.4824 9.94625 32.6137 9.07752C31.745 8.20878 30.5667 7.72073 29.3381 7.72073Z" fill="#3F9AE0"/>
<path d="M3.08813 29.3383C3.08813 30.5669 3.57618 31.7451 4.44492 32.6138C5.31365 33.4826 6.49191 33.9706 7.72049 33.9706H29.3381C30.5667 33.9706 31.745 33.4826 32.6137 32.6138C33.4824 31.7451 33.9705 30.5669 33.9705 29.3383V16.9854H3.08813V29.3383Z" fill="#3F9AE0"/>
</svg>
