<svg width="19" height="12" viewBox="0 0 19 12" fill="none" xmlns="http://www.w3.org/2000/svg">
<path fill-rule="evenodd" clip-rule="evenodd" d="M16.053 0.167969H2.98306C1.43615 0.167969 0.182373 1.2161 0.182373 2.5093V8.75285C0.182373 10.0453 1.43615 11.0942 2.98306 11.0942H16.053C17.5999 11.0942 18.8536 10.0453 18.8536 8.75285V2.5093C18.8536 1.2161 17.5999 0.167969 16.053 0.167969ZM9.26501 6.6316C9.12964 7.35195 8.78329 7.94743 8.23342 8.40165C7.67609 8.86289 6.95538 9.09624 6.09183 9.09624C5.02943 9.09624 4.17896 8.7825 3.56561 8.16361C2.96159 7.55018 2.65538 6.7073 2.65538 5.65449C2.65538 4.5166 3.00267 3.62299 3.68697 2.99864C4.29379 2.44608 5.07518 2.1659 6.00874 2.1659C7.25038 2.1659 8.17554 2.54208 8.75995 3.28584C9.07736 3.69948 9.25101 4.12248 9.27621 4.54313L9.28835 4.72732H7.43616L7.39508 4.59542C7.3092 4.31837 7.20184 4.10999 7.07487 3.97653C6.85175 3.74396 6.52314 3.6308 6.07036 3.6308C5.61945 3.6308 5.27123 3.79391 5.00609 4.13106C4.72789 4.48616 4.58693 5.00516 4.58693 5.674C4.58693 6.33815 4.73256 6.83686 5.02197 7.15528C5.30017 7.46355 5.64372 7.61418 6.06942 7.61418C6.50727 7.61418 6.82934 7.48931 7.05713 7.23098C7.18597 7.08816 7.29519 6.86261 7.38481 6.56292L7.42402 6.43025H9.30329L9.26501 6.6316ZM16.3433 6.6316C16.2079 7.35195 15.8616 7.94743 15.3126 8.40165C14.7544 8.86289 14.0346 9.09624 13.171 9.09624C12.1077 9.09624 11.2582 8.7825 10.6439 8.16361C10.0408 7.55096 9.73366 6.70809 9.73366 5.65527C9.73366 4.51738 10.0809 3.62377 10.7662 2.99942C11.3721 2.44686 12.1525 2.16668 13.087 2.16668C14.3287 2.16668 15.2529 2.54286 15.8373 3.28662C16.1547 3.70026 16.3284 4.12326 16.3545 4.54392L16.3657 4.7281H14.5144L14.4743 4.5962C14.3884 4.31915 14.2801 4.10999 14.1531 3.97731C13.931 3.74474 13.6014 3.63158 13.1486 3.63158C12.6977 3.63158 12.3495 3.79469 12.0853 4.13184C11.8062 4.48694 11.6652 5.00594 11.6652 5.67478C11.6652 6.33894 11.8118 6.83764 12.1012 7.15606C12.3803 7.46434 12.7229 7.61496 13.1477 7.61496C13.5855 7.61496 13.9076 7.49009 14.1354 7.23176C14.2642 7.08894 14.3744 6.86339 14.464 6.5637L14.5032 6.43103H16.3816L16.3433 6.6316Z" fill="white"/>
</svg>
