<svg width="24" height="24" viewBox="0 0 24 24" fill="none" xmlns="http://www.w3.org/2000/svg">
<path d="M14.8887 12.8681C15.8302 15.2504 16.5295 17.7029 16.9839 20.2085C17.6321 19.8132 18.2379 19.3385 18.7887 18.788C20.2188 17.3576 21.1419 15.5552 21.468 13.5992C20.0631 13.0179 18.5242 12.6963 16.9114 12.6963C16.2219 12.6963 15.5463 12.7556 14.8887 12.8681Z" fill="white"/>
<path d="M18.7964 5.2199C18.7935 5.21726 18.7909 5.21438 18.7882 5.21174C16.975 3.39854 14.5642 2.3999 12.0001 2.3999C10.9974 2.3999 10.0181 2.55326 9.08887 2.84774C10.5781 4.71374 11.8882 6.70502 13.0112 8.80958C15.1266 7.91126 17.0749 6.69446 18.7964 5.2199Z" fill="white"/>
<path d="M19.5504 6.06982C17.7447 7.62094 15.7265 8.87782 13.5308 9.81741C13.8545 10.469 14.1603 11.1312 14.4488 11.8032C15.2547 11.6498 16.0767 11.5716 16.9109 11.5716C18.5268 11.5716 20.0983 11.8622 21.5897 12.4341C21.5962 12.2899 21.5998 12.1452 21.5998 12.0002C21.5998 9.8215 20.8788 7.75438 19.5504 6.06982Z" fill="white"/>
<path d="M6.09131 19.5672C7.77203 20.885 9.83123 21.5998 12.0003 21.5998C13.3791 21.5998 14.7133 21.3106 15.9342 20.7619C15.4765 18.1101 14.7438 15.5517 13.7663 13.1167C10.3688 14.0438 7.56971 16.4349 6.09131 19.5672Z" fill="white"/>
<path d="M11.8185 12.5994C12.3122 12.3906 12.8157 12.2135 13.3269 12.0681C13.0571 11.4503 12.7708 10.8412 12.4696 10.2407C9.87615 11.2036 7.14903 11.6918 4.3475 11.6918C3.69662 11.6918 3.05006 11.6649 2.4083 11.6126C2.40302 11.741 2.3999 11.8701 2.3999 11.9999C2.3999 14.5641 3.39854 16.9749 5.21175 18.7881C5.21223 18.7885 5.21295 18.7893 5.21367 18.7897C5.84079 17.5391 6.66087 16.4022 7.66023 15.4029C8.86143 14.2017 10.2604 13.2585 11.8185 12.5994Z" fill="white"/>
<path d="M11.9431 9.23039C10.8038 7.12055 9.4711 5.12999 7.96894 3.28223C6.95662 3.75119 6.02398 4.39943 5.21158 5.21183C3.7591 6.66431 2.82982 8.50055 2.51758 10.4918C3.12118 10.5413 3.73126 10.5669 4.34758 10.5669C7.01374 10.5667 9.57214 10.0949 11.9431 9.23039Z" fill="white"/>
</svg>
