<svg width="220" height="219" viewBox="0 0 220 219" fill="none" xmlns="http://www.w3.org/2000/svg">
<path d="M110 17.1109C110 7.10852 118.163 -1.152 128.03 0.487499C145.33 3.36207 161.784 10.3482 175.958 20.9687C194.991 35.2295 208.89 55.2747 215.571 78.1C222.252 100.925 221.355 125.301 213.015 147.574C204.675 169.846 189.341 188.816 169.312 201.64C149.282 214.463 125.636 220.45 101.917 218.703C78.1988 216.955 55.6854 207.567 37.7516 191.947C19.8178 176.326 7.42974 155.314 2.44412 132.059C-1.26886 114.741 -0.727211 96.8735 3.90282 79.9583C6.54354 70.3109 17.462 66.355 26.5462 70.5413C35.6304 74.7276 39.3521 85.5017 37.499 95.3309C35.6928 104.912 35.7921 114.816 37.8611 124.466C41.205 140.063 49.5138 154.156 61.5422 164.633C73.5706 175.11 88.6706 181.407 104.579 182.579C120.487 183.751 136.347 179.736 149.781 171.135C163.215 162.534 173.5 149.81 179.093 134.872C184.687 119.933 185.288 103.584 180.808 88.275C176.327 72.9658 167.005 59.5213 154.239 49.9564C146.341 44.0386 137.387 39.8031 127.93 37.4336C118.227 35.0027 110 27.1132 110 17.1109Z" fill="url(#paint0_linear_122_1800)"/>
<defs>
<linearGradient id="paint0_linear_122_1800" x1="110" y1="-1" x2="110" y2="219" gradientUnits="userSpaceOnUse">
<stop stop-color="white"/>
<stop offset="1" stop-color="white" stop-opacity="0.7"/>
</linearGradient>
</defs>
</svg>
