<svg width="38" height="38" viewBox="0 0 38 38" fill="none" xmlns="http://www.w3.org/2000/svg">
<g clip-path="url(#clip0_97_3281)">
<path d="M18.5294 6.17627C10.6067 6.17627 3.70633 11.1523 0 18.5294C3.70633 25.9077 10.6067 30.8825 18.5294 30.8825C26.4521 30.8825 33.3525 25.9077 37.0588 18.5294C33.3525 11.1523 26.4521 6.17627 18.5294 6.17627ZM18.5294 26.2501C14.2648 26.2501 10.8087 22.7939 10.8087 18.5294C10.8087 14.2648 14.2648 10.8086 18.5294 10.8086C22.794 10.8086 26.2501 14.2648 26.2501 18.5294C26.2501 22.7939 22.794 26.2501 18.5294 26.2501Z" fill="#40189D"/>
<path d="M18.5293 23.1617C21.0877 23.1617 23.1617 21.0877 23.1617 18.5293C23.1617 15.9709 21.0877 13.897 18.5293 13.897C15.9709 13.897 13.897 15.9709 13.897 18.5293C13.897 21.0877 15.9709 23.1617 18.5293 23.1617Z" fill="#40189D"/>
</g>
<defs>
<clipPath id="clip0_97_3281">
<rect width="37.0588" height="37.0588" fill="white"/>
</clipPath>
</defs>
</svg>
