<svg width="28" height="28" viewBox="0 0 28 28" fill="none" xmlns="http://www.w3.org/2000/svg">
<g clip-path="url(#clip0_276_5258)">
<path d="M23.7943 12.6045C23.3018 12.6045 22.8391 12.6866 22.4063 12.8582V5.58955H15.1525C15.3092 5.15672 15.3913 4.6791 15.3913 4.18657C15.3913 1.87313 13.5182 0 11.2048 0C8.89134 0 7.0182 1.87313 7.0182 4.18657C7.0182 4.6791 7.10029 5.14925 7.25701 5.58955H0.0107422V13.7015C0.749548 13.0299 1.73462 12.6119 2.80925 12.6119C5.12268 12.6119 6.99582 14.4851 6.99582 16.7985C6.99582 19.1119 5.12268 20.9851 2.80925 20.9851C1.73462 20.9851 0.749548 20.5672 0.0107422 19.8955V28H22.4137V20.7313C22.8466 20.8955 23.3092 20.9851 23.8018 20.9851C26.1227 20.9851 27.9884 19.1119 27.9884 16.7985C27.9884 14.4851 26.1227 12.6045 23.7943 12.6045Z" fill="#005DFF"/>
</g>
<defs>
<clipPath id="clip0_276_5258">
<rect width="28" height="28" fill="white"/>
</clipPath>
</defs>
</svg>
