<svg width="37" height="37" viewBox="0 0 37 37" fill="none" xmlns="http://www.w3.org/2000/svg">
<g clip-path="url(#clip0_97_3298)">
<path d="M29.1579 34.2648C29.4681 34.2648 29.7742 34.3828 30.007 34.6076C31.4954 36.0449 33.6664 36.5234 35.5964 35.9244C34.3543 33.3368 34.1822 30.3723 35.1447 27.6275C36.3392 24.2124 36.6386 20.7894 35.2791 17.3564C34.0847 14.3406 31.7799 11.835 28.863 10.4062C29.0424 11.363 29.1329 12.3377 29.1329 13.3228C29.133 17.5042 27.5251 21.4368 24.6057 24.3965C21.686 27.3565 17.7721 29.0209 13.5852 29.0831C12.8073 29.0953 12.0329 29.0496 11.2673 28.9486C13.5684 32.982 17.9081 35.6089 22.677 35.6797C24.7631 35.7119 26.7662 35.2748 28.6316 34.384C28.7996 34.3037 28.9795 34.2648 29.1579 34.2648Z" fill="#40189D"/>
<path d="M13.6192 0.00314637C6.19173 -0.144335 0.0174611 5.86436 -0.000448007 13.2902C-0.00483575 15.1045 0.349317 16.8635 1.05225 18.5187C1.06246 18.5428 1.07195 18.5671 1.08055 18.5919C2.04307 21.3367 1.87106 24.3011 0.628879 26.8888C2.55904 27.4875 4.7298 27.0092 6.21823 25.5719C6.58492 25.2177 7.13357 25.1285 7.59365 25.3484C9.4588 26.2392 11.4621 26.6777 13.5482 26.6442C20.9175 26.5347 26.6901 20.6834 26.69 13.323C26.6901 6.12324 20.8264 0.148031 13.6192 0.00314637ZM6.22629 15.3127C5.15918 15.3127 4.29407 14.449 4.29407 13.3837C4.29407 12.3184 5.15918 11.4547 6.22629 11.4547C7.29341 11.4547 8.15851 12.3184 8.15851 13.3837C8.15842 14.449 7.29341 15.3127 6.22629 15.3127ZM13.3448 15.3127C12.2777 15.3127 11.4126 14.449 11.4126 13.3837C11.4126 12.3184 12.2777 11.4547 13.3448 11.4547C14.4119 11.4547 15.277 12.3184 15.277 13.3837C15.277 14.449 14.4119 15.3127 13.3448 15.3127ZM20.4634 15.3127C19.3963 15.3127 18.5312 14.449 18.5312 13.3837C18.5312 12.3184 19.3963 11.4547 20.4634 11.4547C21.5305 11.4547 22.3956 12.3184 22.3956 13.3837C22.3956 14.449 21.5305 15.3127 20.4634 15.3127Z" fill="#40189D"/>
</g>
<defs>
<clipPath id="clip0_97_3298">
<rect width="36.1765" height="36.1765" fill="white"/>
</clipPath>
</defs>
</svg>
