<svg width="28" height="28" viewBox="0 0 28 28" fill="none" xmlns="http://www.w3.org/2000/svg">
<g clip-path="url(#clip0_78_1452)">
<path d="M22.5677 26.5203C22.8078 26.5203 23.0447 26.6117 23.2249 26.7857C24.3769 27.8981 26.0572 28.2684 27.551 27.8048C26.5896 25.8021 26.4564 23.5076 27.2014 21.3832C28.1259 18.7399 28.3576 16.0906 27.3054 13.4335C26.381 11.0993 24.5971 9.16006 22.3394 8.0542C22.4783 8.79467 22.5483 9.54915 22.5483 10.3116C22.5484 13.5479 21.3039 16.5917 19.0444 18.8824C16.7846 21.1734 13.7553 22.4616 10.5147 22.5098C9.91264 22.5192 9.31328 22.4838 8.7207 22.4057C10.5017 25.5275 13.8606 27.5607 17.5516 27.6154C19.1662 27.6404 20.7166 27.3021 22.1604 26.6126C22.2904 26.5505 22.4296 26.5203 22.5677 26.5203Z" fill="#3E4954"/>
<path d="M10.5414 0.0025456C4.79267 -0.111603 0.0138926 4.53903 3.11717e-05 10.2865C-0.00336487 11.6907 0.270744 13.0522 0.814803 14.3333C0.822704 14.3519 0.830051 14.3708 0.836704 14.3899C1.58168 16.5144 1.44855 18.8088 0.48712 20.8116C1.98103 21.275 3.66117 20.9048 4.81319 19.7924C5.097 19.5182 5.52164 19.4492 5.87774 19.6194C7.32134 20.3089 8.87187 20.6482 10.4864 20.6223C16.1902 20.5376 20.6581 16.0087 20.658 10.3119C20.6581 4.7394 16.1197 0.114684 10.5414 0.0025456ZM4.81943 11.8519C3.9935 11.8519 3.32392 11.1834 3.32392 10.3589C3.32392 9.53433 3.9935 8.86586 4.81943 8.86586C5.64536 8.86586 6.31493 9.53433 6.31493 10.3589C6.31486 11.1834 5.64536 11.8519 4.81943 11.8519ZM10.3291 11.8519C9.50312 11.8519 8.83355 11.1834 8.83355 10.3589C8.83355 9.53433 9.50312 8.86586 10.3291 8.86586C11.155 8.86586 11.8246 9.53433 11.8246 10.3589C11.8246 11.1834 11.155 11.8519 10.3291 11.8519ZM15.8387 11.8519C15.0128 11.8519 14.3432 11.1834 14.3432 10.3589C14.3432 9.53433 15.0128 8.86586 15.8387 8.86586C16.6647 8.86586 17.3342 9.53433 17.3342 10.3589C17.3342 11.1834 16.6647 11.8519 15.8387 11.8519Z" fill="#3E4954"/>
</g>
<defs>
<clipPath id="clip0_78_1452">
<rect width="28" height="28" fill="white"/>
</clipPath>
</defs>
</svg>
