<svg width="28" height="28" viewBox="0 0 28 28" fill="none" xmlns="http://www.w3.org/2000/svg">
<path d="M25.2758 11.961L16.3247 4.00573C15.6841 3.43649 14.8569 3.12207 13.9999 3.12207C13.1429 3.12207 12.3157 3.43649 11.675 4.00573L2.72508 11.961C2.54872 12.1184 2.42429 12.3257 2.36825 12.5553C2.31221 12.785 2.32719 13.0263 2.41122 13.2472C2.49525 13.4682 2.64437 13.6584 2.83886 13.7928C3.03335 13.9272 3.26405 13.9994 3.50045 13.9999H5.83378V22.1665C5.8348 23.0945 6.20388 23.9841 6.86003 24.6403C7.51619 25.2964 8.40584 25.6655 9.33378 25.6665H10.5004V18.6665C10.5004 14.0419 17.5004 14.0398 17.5004 18.6665V25.6665H18.6671C19.5951 25.6655 20.4847 25.2964 21.1409 24.6403C21.797 23.9841 22.1661 23.0945 22.1671 22.1665V13.9999H24.5004C24.7368 13.9994 24.9675 13.9272 25.162 13.7928C25.3565 13.6584 25.5056 13.4682 25.5897 13.2472C25.6737 13.0263 25.6887 12.785 25.6327 12.5553C25.5766 12.3257 25.4522 12.1184 25.2758 11.961Z" fill="#005DFF"/>
</svg>
