<svg width="28" height="28" viewBox="0 0 28 28" fill="none" xmlns="http://www.w3.org/2000/svg">
<path d="M19.6214 4.51611H3.54284C2.95913 4.51611 2.48438 4.99087 2.48438 5.57458V26.9415C2.48438 27.5252 2.95913 28 3.54284 28H19.6214C20.2045 28 20.6793 27.5252 20.6793 26.9415V5.57458C20.6793 4.99087 20.2045 4.51611 19.6214 4.51611ZM16.0328 19.4193H7.45212C6.95308 19.4193 6.54889 19.0151 6.54889 18.5161C6.54889 18.0171 6.95308 17.6129 7.45212 17.6129H16.0328C16.5318 17.6129 16.936 18.0171 16.936 18.5161C16.936 19.0151 16.5318 19.4193 16.0328 19.4193ZM16.0328 15.8064H7.45212C6.95308 15.8064 6.54889 15.4022 6.54889 14.9032C6.54889 14.4042 6.95308 14 7.45212 14H16.0328C16.5318 14 16.936 14.4042 16.936 14.9032C16.936 15.4022 16.5318 15.8064 16.0328 15.8064ZM16.0328 12.1935H7.45212C6.95308 12.1935 6.54889 11.7893 6.54889 11.2903C6.54889 10.7913 6.95308 10.3871 7.45212 10.3871H16.0328C16.5318 10.3871 16.936 10.7913 16.936 11.2903C16.936 11.7893 16.5318 12.1935 16.0328 12.1935Z" fill="#005DFF"/>
<path d="M25.516 2.70968V22.5806C25.516 23.9445 24.4185 25.2903 22.4851 25.2903V5.5746C22.4851 3.99452 21.2003 2.70968 19.6208 2.70968H5.51465C5.51465 1.2154 6.80231 0 8.38465 0H22.646C24.2284 0 25.516 1.2154 25.516 2.70968Z" fill="#005DFF"/>
</svg>
