<svg width="28" height="28" viewBox="0 0 28 28" fill="none" xmlns="http://www.w3.org/2000/svg">
<g clip-path="url(#clip0_78_1428)">
<path d="M15.7543 24.4959C8.99134 24.4959 3.50879 19.0134 3.50879 12.2504C3.50879 5.48732 8.99128 0.00488281 15.7543 0.00488281C22.5174 0.00488281 27.9999 5.48738 27.9999 12.2504C27.9999 19.0135 22.5174 24.4959 15.7543 24.4959ZM15.7543 3.50363C10.9236 3.50363 7.00754 7.41969 7.00754 12.2504C7.00754 17.0812 10.9236 20.9973 15.7543 20.9973C20.5851 20.9973 24.5012 17.0812 24.5012 12.2504C24.5012 7.41969 20.585 3.50363 15.7543 3.50363Z" fill="#BFBFBF"/>
<path d="M1.75951 27.9948C1.29451 27.9975 0.847591 27.8149 0.517469 27.4874C-0.168521 26.8071 -0.173043 25.6995 0.50734 25.0135C0.510716 25.0101 0.514093 25.0067 0.517469 25.0034L7.09506 18.4258C7.80517 17.7398 8.93693 17.7594 9.62292 18.4695C10.3089 19.1796 10.2893 20.3114 9.57921 20.9973L3.00155 27.4874C2.67143 27.8149 2.22452 27.9975 1.75951 27.9948Z" fill="#BFBFBF"/>
</g>
<defs>
<clipPath id="clip0_78_1428">
<rect width="28" height="28" fill="white"/>
</clipPath>
</defs>
</svg>
