<svg width="24" height="24" viewBox="0 0 24 24" fill="none" xmlns="http://www.w3.org/2000/svg">
<path d="M10.2929 16.293L7.99992 18.5859V3C7.99992 2.73478 7.89456 2.48043 7.70703 2.29289C7.51949 2.10536 7.26514 2 6.99992 2C6.7347 2 6.48035 2.10536 6.29281 2.29289C6.10528 2.48043 5.99992 2.73478 5.99992 3V18.5859L3.70692 16.293C3.51832 16.1108 3.26571 16.01 3.00352 16.0123C2.74132 16.0146 2.49051 16.1198 2.3051 16.3052C2.11969 16.4906 2.01452 16.7414 2.01224 17.0036C2.00997 17.2658 2.11076 17.5184 2.29292 17.707L6.29292 21.707C6.48062 21.8942 6.73489 21.9993 6.99997 21.9993C7.26505 21.9993 7.51932 21.8942 7.70702 21.707L11.707 17.707C11.8898 17.5185 11.9912 17.2657 11.9892 17.0031C11.9872 16.7405 11.882 16.4893 11.6963 16.3036C11.5106 16.118 11.2594 16.0128 10.9968 16.0108C10.7342 16.0088 10.4814 16.1102 10.2929 16.293Z" fill="#005DFF"/>
<path d="M11 6H21C21.2652 6 21.5196 5.89464 21.7071 5.7071C21.8946 5.51957 22 5.26521 22 5C22 4.73478 21.8946 4.48043 21.7071 4.29289C21.5196 4.10536 21.2652 4 21 4H11C10.7348 4 10.4804 4.10536 10.2929 4.29289C10.1054 4.48043 10 4.73478 10 5C10 5.26521 10.1054 5.51957 10.2929 5.7071C10.4804 5.89464 10.7348 6 11 6Z" fill="#005DFF"/>
<path d="M21 8H11C10.7348 8 10.4804 8.10536 10.2929 8.29289C10.1054 8.48043 10 8.73478 10 9C10 9.26521 10.1054 9.51957 10.2929 9.7071C10.4804 9.89464 10.7348 10 11 10H21C21.2652 10 21.5196 9.89464 21.7071 9.7071C21.8946 9.51957 22 9.26521 22 9C22 8.73478 21.8946 8.48043 21.7071 8.29289C21.5196 8.10536 21.2652 8 21 8Z" fill="#005DFF"/>
<path d="M18 12H11C10.7348 12 10.4804 12.1054 10.2929 12.2929C10.1054 12.4804 10 12.7348 10 13C10 13.2652 10.1054 13.5196 10.2929 13.7071C10.4804 13.8947 10.7348 14 11 14H18C18.2652 14 18.5196 13.8947 18.7071 13.7071C18.8946 13.5196 19 13.2652 19 13C19 12.7348 18.8946 12.4804 18.7071 12.2929C18.5196 12.1054 18.2652 12 18 12Z" fill="#005DFF"/>
</svg>
