<svg width="25" height="24" viewBox="0 0 25 24" fill="none" xmlns="http://www.w3.org/2000/svg">
<mask id="mask0_104_3198" style="mask-type:luminance" maskUnits="userSpaceOnUse" x="2" y="2" width="21" height="20">
<path d="M2.5 2H22.5V22H2.5V2Z" fill="white"/>
</mask>
<g mask="url(#mask0_104_3198)">
<path d="M5.6704 10.0012C5.6704 6.23543 8.73407 3.17176 12.4998 3.17176C16.2656 3.17176 19.3292 6.23543 19.3292 10.0012C19.3292 13.7669 16.2656 16.8306 12.4998 16.8306C8.73407 16.8306 5.6704 13.7669 5.6704 10.0012ZM7.60958 18.2955L5.57149 18.1775L6.85532 15.6667C7.74216 16.5502 8.83462 17.2272 10.0537 17.6196L8.89853 19.8787L7.60958 18.2955ZM16.1011 19.8787L14.9459 17.6196C16.165 17.2272 17.2575 16.5502 18.1443 15.6667L19.4281 18.1775L17.39 18.2955L16.1011 19.8787ZM18.9685 14.7045C19.9317 13.3834 20.5011 11.7577 20.5011 10.0012C20.5011 5.58926 16.9117 1.99988 12.4998 1.99988C8.0879 1.99988 4.49853 5.58926 4.49853 10.0012C4.49853 11.7577 5.0679 13.3834 6.0311 14.7045L3.71021 19.2434L7.02661 19.4356L9.12403 22.0117L11.2261 17.9007C11.6411 17.9673 12.0664 18.0025 12.4998 18.0025C12.9333 18.0025 13.3586 17.9673 13.7735 17.9007L15.8756 22.0117L17.973 19.4356L21.2894 19.2434L18.9685 14.7045Z" fill="#3481ED"/>
<path d="M12.4998 6.00373C14.704 6.00373 16.4972 7.79697 16.4972 10.0012C16.4972 12.2053 14.704 13.9985 12.4998 13.9985C10.2956 13.9985 8.50244 12.2053 8.50244 10.0012C8.50244 7.79697 10.2956 6.00373 12.4998 6.00373ZM12.4998 15.1704C15.3502 15.1704 17.6691 12.8515 17.6691 10.0012C17.6691 7.1508 15.3502 4.83186 12.4998 4.83186C9.64947 4.83186 7.33057 7.1508 7.33057 10.0012C7.33057 12.8515 9.64947 15.1704 12.4998 15.1704Z" fill="#3481ED"/>
<path d="M14.6986 9.10049L13.8699 8.27186L12.201 9.94088L11.3653 9.10518L10.5366 9.93381L12.201 11.5981L14.6986 9.10049Z" fill="#3481ED"/>
</g>
</svg>
