<svg width="24" height="24" viewBox="0 0 24 24" fill="none" xmlns="http://www.w3.org/2000/svg">
<path d="M21.5948 21.5997V21.599H21.5996V14.5574C21.5996 11.1127 20.858 8.45898 16.8308 8.45898C14.8948 8.45898 13.5956 9.52146 13.0652 10.5285H13.0093V8.78058H9.19092V21.599H13.167V15.2517C13.167 13.5806 13.4838 11.9644 15.5533 11.9644C17.5926 11.9644 17.6228 13.8717 17.6228 15.3587V21.5997H21.5948Z" fill="white"/>
<path d="M2.7168 8.78174H6.69767V21.6001H2.7168V8.78174Z" fill="white"/>
<path d="M4.70559 2.3999C3.43262 2.3999 2.3999 3.43262 2.3999 4.70558C2.3999 5.97854 3.43262 7.03286 4.70559 7.03286C5.97855 7.03286 7.01127 5.97854 7.01127 4.70558C7.01031 3.43262 5.97759 2.3999 4.70559 2.3999Z" fill="white"/>
</svg>
