<svg width="24" height="24" viewBox="0 0 24 24" fill="none" xmlns="http://www.w3.org/2000/svg">
<g clip-path="url(#clip0_104_3118)">
<path d="M23.5 12C23.5 18.3513 18.3513 23.5 12 23.5C5.64873 23.5 0.5 18.3513 0.5 12C0.5 5.64873 5.64873 0.5 12 0.5C18.3513 0.5 23.5 5.64873 23.5 12Z" stroke="#A2A5B1"/>
<path d="M17.7376 11.8312L17.7377 11.8312C17.8582 11.9116 17.8583 12.0888 17.7376 12.1692C17.7376 12.1692 17.7376 12.1692 17.7376 12.1692L9.30016 17.7942C9.16517 17.8842 8.98438 17.7874 8.98438 17.6252V6.3752C8.98438 6.21298 9.16518 6.11622 9.30015 6.20618C9.30015 6.20618 9.30016 6.20618 9.30016 6.20619L17.7376 11.8312Z" stroke="#A2A5B1"/>
</g>
<defs>
<clipPath id="clip0_104_3118">
<rect width="24" height="24" fill="white"/>
</clipPath>
</defs>
</svg>
