<svg width="265" height="74" viewBox="0 0 265 74" fill="none" xmlns="http://www.w3.org/2000/svg">
<path d="M38.815 2.85271e-05H225.988C231.079 -0.00614734 236.121 0.990502 240.827 2.93307C245.533 4.87564 249.811 7.72611 253.415 11.3217C257.019 14.9173 259.88 19.1875 261.834 23.8887C263.788 28.5899 264.797 33.6299 264.803 38.721V35.279C264.797 40.3701 263.788 45.4102 261.834 50.1114C259.88 54.8125 257.019 59.0828 253.415 62.6784C249.811 66.2739 245.533 69.1244 240.827 71.067C236.121 73.0096 231.079 74.0062 225.988 74H38.815C33.7239 74.0062 28.6814 73.0096 23.9755 71.067C19.2696 69.1244 14.9924 66.2739 11.3881 62.6784C7.78382 59.0828 4.92297 54.8125 2.96899 50.1114C1.01502 45.4102 0.00616839 40.3701 0 35.279V38.721C0.00616839 33.6299 1.01502 28.5899 2.96899 23.8887C4.92297 19.1875 7.78382 14.9173 11.3881 11.3217C14.9924 7.72611 19.2696 4.87564 23.9755 2.93307C28.6814 0.990502 33.7239 -0.00614734 38.815 2.85271e-05Z" fill="#DBDBDB"/>
</svg>
