<svg width="265" height="74" viewBox="0 0 265 74" fill="none" xmlns="http://www.w3.org/2000/svg">
<path d="M39.0122 2.85271e-05H226.185C231.276 -0.00614734 236.319 0.990502 241.025 2.93307C245.731 4.87564 250.008 7.72611 253.612 11.3217C257.216 14.9173 260.077 19.1875 262.031 23.8887C263.985 28.5899 264.994 33.6299 265 38.721V35.279C264.994 40.3701 263.985 45.4102 262.031 50.1114C260.077 54.8125 257.216 59.0828 253.612 62.6784C250.008 66.2739 245.731 69.1244 241.025 71.067C236.319 73.0096 231.276 74.0062 226.185 74H39.0122C33.9211 74.0062 28.8788 73.0096 24.1729 71.067C19.4669 69.1244 15.1896 66.2739 11.5853 62.6784C7.98102 59.0828 5.12023 54.8125 3.16626 50.1114C1.21228 45.4102 0.203434 40.3701 0.197266 35.279V38.721C0.203434 33.6299 1.21228 28.5899 3.16626 23.8887C5.12023 19.1875 7.98102 14.9173 11.5853 11.3217C15.1896 7.72611 19.4669 4.87564 24.1729 2.93307C28.8788 0.990502 33.9211 -0.00614734 39.0122 2.85271e-05Z" fill="#005DFF"/>
</svg>
