<svg width="15" height="13" viewBox="0 0 15 13" fill="none" xmlns="http://www.w3.org/2000/svg">
<path d="M7.77263 0.387695H6.37228C5.85668 0.387695 5.43871 0.737112 5.43871 1.16814V1.72225C5.43128 1.97723 5.23908 2.20279 4.95326 2.29198C4.48168 2.45421 4.03881 2.66952 3.63693 2.93194C3.40098 3.09217 3.0724 3.11686 2.80605 2.99438L2.22724 2.72902C2.01203 2.6248 1.75597 2.59667 1.51586 2.65089C1.27575 2.7051 1.07144 2.83716 0.948254 3.01779L0.248078 4.03237C0.0132492 4.39997 0.165322 4.85695 0.593498 5.07035L1.17231 5.35131C1.43006 5.48404 1.56649 5.7337 1.51773 5.98347C1.44851 6.40554 1.44851 6.83353 1.51773 7.2556C1.56649 7.50536 1.43006 7.75503 1.17231 7.88775L0.593498 8.19213C0.377433 8.29511 0.219455 8.46591 0.154608 8.66663C0.0897602 8.86736 0.123405 9.08142 0.248078 9.26133L0.948254 10.2759C1.21752 10.6409 1.78868 10.756 2.22724 10.5335L2.80605 10.2525C3.0724 10.13 3.40098 10.1547 3.63693 10.3149C4.03881 10.5774 4.48168 10.7927 4.95326 10.9549C5.23908 11.0441 5.43128 11.2696 5.43871 11.5246V12.0943C5.43871 12.5254 5.85668 12.8748 6.37228 12.8748H7.77263C8.28823 12.8748 8.7062 12.5254 8.7062 12.0943V11.5402C8.71363 11.2853 8.90583 11.0597 9.19165 10.9705C9.66323 10.8083 10.1061 10.593 10.508 10.3305C10.7439 10.1703 11.0725 10.1456 11.3389 10.2681L11.9177 10.5491C12.1329 10.6533 12.3889 10.6814 12.6291 10.6272C12.8692 10.573 13.0735 10.4409 13.1967 10.2603L13.8968 9.24573C14.1439 8.87447 13.9904 8.40619 13.5514 8.19213L12.9726 7.91117C12.7148 7.77845 12.5784 7.52878 12.6272 7.27901C12.6964 6.85694 12.6964 6.42895 12.6272 6.00689C12.5784 5.75712 12.7148 5.50745 12.9726 5.37473L13.5514 5.09377C13.7675 4.99079 13.9255 4.81999 13.9903 4.61926C14.0551 4.41853 14.0215 4.20447 13.8968 4.02456L13.1967 3.00998C13.0719 2.83068 12.8669 2.70027 12.6269 2.64756C12.387 2.59484 12.1317 2.62415 11.9177 2.72902L11.3389 3.00998C11.0725 3.13247 10.7439 3.10778 10.508 2.94755C10.1061 2.68513 9.66323 2.46982 9.19165 2.30759C8.90583 2.21839 8.71363 1.99283 8.7062 1.73786V1.16814C8.7062 0.961152 8.60784 0.762643 8.43276 0.616282C8.25768 0.46992 8.02023 0.387695 7.77263 0.387695ZM9.40637 6.63124C9.40637 7.70881 8.36144 8.58235 7.07245 8.58235C5.78347 8.58235 4.73854 7.70881 4.73854 6.63124C4.73854 5.55367 5.78347 4.68013 7.07245 4.68013C8.36144 4.68013 9.40637 5.55367 9.40637 6.63124Z" fill="white"/>
</svg>
