<svg width="18" height="18" viewBox="0 0 18 18" fill="none" xmlns="http://www.w3.org/2000/svg">
<path fill-rule="evenodd" clip-rule="evenodd" d="M8.38074 0.989582C8.97112 0.399197 9.92833 0.399197 10.5187 0.989582L16.9326 7.40351C17.523 7.99389 17.523 8.9511 16.9326 9.54148C16.3423 10.1319 15.385 10.1319 14.7947 9.54148L14.6853 9.43212L10.1041 14.8282L10.5187 15.2428C11.1091 15.8332 11.1091 16.7904 10.5187 17.3807C9.92831 17.9711 8.9711 17.9711 8.38072 17.3807L0.541477 9.5415C-0.0489084 8.95112 -0.0489073 7.99392 0.541478 7.40353C1.13186 6.81315 2.08907 6.81315 2.67945 7.40353L3.10105 7.82513L8.5466 3.29342L8.38074 3.12756C7.79035 2.53717 7.79035 1.57997 8.38074 0.989582Z" fill="#6C7C93"/>
</svg>
