<svg width="21" height="20" viewBox="0 0 21 20" fill="none" xmlns="http://www.w3.org/2000/svg">
<mask id="path-1-inside-1_3810_1990" fill="white">
<path fill-rule="evenodd" clip-rule="evenodd" d="M5.78256 0C3.19998 0 0.981092 1.6842 0.721548 4.25371C0.571264 5.74152 0.458008 7.64425 0.458008 10C0.458008 12.3558 0.571264 14.2585 0.721548 15.7463C0.981092 18.3158 3.19998 20 5.78256 20H15.1335C17.716 20 19.9349 18.3158 20.1945 15.7463C20.3448 14.2585 20.458 12.3558 20.458 10C20.458 7.64425 20.3448 5.74152 20.1945 4.2537C19.9349 1.6842 17.716 0 15.1335 0H5.78256ZM11.458 5C11.458 4.44772 11.0103 4 10.458 4C9.90572 4 9.45801 4.44772 9.45801 5V8.5C9.45801 8.77614 9.23415 9 8.95801 9H5.45801C4.90572 9 4.45801 9.44772 4.45801 10C4.45801 10.5523 4.90572 11 5.45801 11H8.95801C9.23415 11 9.45801 11.2239 9.45801 11.5V15C9.45801 15.5523 9.90572 16 10.458 16C11.0103 16 11.458 15.5523 11.458 15V11.5C11.458 11.2239 11.6819 11 11.958 11H15.458C16.0103 11 16.458 10.5523 16.458 10C16.458 9.44772 16.0103 9 15.458 9H11.958C11.6819 9 11.458 8.77614 11.458 8.5V5Z"/>
</mask>
<path fill-rule="evenodd" clip-rule="evenodd" d="M5.78256 0C3.19998 0 0.981092 1.6842 0.721548 4.25371C0.571264 5.74152 0.458008 7.64425 0.458008 10C0.458008 12.3558 0.571264 14.2585 0.721548 15.7463C0.981092 18.3158 3.19998 20 5.78256 20H15.1335C17.716 20 19.9349 18.3158 20.1945 15.7463C20.3448 14.2585 20.458 12.3558 20.458 10C20.458 7.64425 20.3448 5.74152 20.1945 4.2537C19.9349 1.6842 17.716 0 15.1335 0H5.78256ZM11.458 5C11.458 4.44772 11.0103 4 10.458 4C9.90572 4 9.45801 4.44772 9.45801 5V8.5C9.45801 8.77614 9.23415 9 8.95801 9H5.45801C4.90572 9 4.45801 9.44772 4.45801 10C4.45801 10.5523 4.90572 11 5.45801 11H8.95801C9.23415 11 9.45801 11.2239 9.45801 11.5V15C9.45801 15.5523 9.90572 16 10.458 16C11.0103 16 11.458 15.5523 11.458 15V11.5C11.458 11.2239 11.6819 11 11.958 11H15.458C16.0103 11 16.458 10.5523 16.458 10C16.458 9.44772 16.0103 9 15.458 9H11.958C11.6819 9 11.458 8.77614 11.458 8.5V5Z" fill="white"/>
<path d="M0.721548 4.25371L-0.27339 4.15321L0.721548 4.25371ZM0.721548 15.7463L1.71649 15.6458L0.721548 15.7463ZM20.1945 15.7463L19.1995 15.6458L20.1945 15.7463ZM20.1945 4.2537L19.1995 4.3542L20.1945 4.2537ZM1.71648 4.3542C1.91551 2.38381 3.61942 1 5.78256 1V-1C2.78054 -1 0.0466705 0.984589 -0.27339 4.15321L1.71648 4.3542ZM1.45801 10C1.45801 7.67631 1.56972 5.80716 1.71648 4.3542L-0.27339 4.15321C-0.427194 5.67588 -0.541992 7.61219 -0.541992 10H1.45801ZM1.71649 15.6458C1.56972 14.1928 1.45801 12.3237 1.45801 10H-0.541992C-0.541992 12.3878 -0.427194 14.3241 -0.27339 15.8468L1.71649 15.6458ZM5.78256 19C3.61942 19 1.91551 17.6162 1.71649 15.6458L-0.27339 15.8468C0.0466705 19.0154 2.78054 21 5.78256 21V19ZM15.1335 19H5.78256V21H15.1335V19ZM19.1995 15.6458C19.0005 17.6162 17.2966 19 15.1335 19V21C18.1355 21 20.8693 19.0154 21.1894 15.8468L19.1995 15.6458ZM19.458 10C19.458 12.3237 19.3463 14.1928 19.1995 15.6458L21.1894 15.8468C21.3432 14.3241 21.458 12.3878 21.458 10H19.458ZM19.1995 4.3542C19.3463 5.80716 19.458 7.67631 19.458 10H21.458C21.458 7.61219 21.3432 5.67588 21.1894 4.15321L19.1995 4.3542ZM15.1335 1C17.2966 1 19.0005 2.38381 19.1995 4.3542L21.1894 4.15321C20.8693 0.984589 18.1355 -1 15.1335 -1V1ZM5.78256 1H15.1335V-1H5.78256V1ZM10.458 5H12.458C12.458 3.89543 11.5626 3 10.458 3V5ZM10.458 5V3C9.35344 3 8.45801 3.89543 8.45801 5H10.458ZM10.458 8.5V5H8.45801V8.5H10.458ZM5.45801 10H8.95801V8H5.45801V10ZM5.45801 10V8C4.35344 8 3.45801 8.89543 3.45801 10H5.45801ZM5.45801 10H3.45801C3.45801 11.1046 4.35344 12 5.45801 12V10ZM8.95801 10H5.45801V12H8.95801V10ZM10.458 15V11.5H8.45801V15H10.458ZM10.458 15H8.45801C8.45801 16.1046 9.35344 17 10.458 17V15ZM10.458 15V17C11.5626 17 12.458 16.1046 12.458 15H10.458ZM10.458 11.5V15H12.458V11.5H10.458ZM15.458 10H11.958V12H15.458V10ZM15.458 10V12C16.5626 12 17.458 11.1046 17.458 10H15.458ZM15.458 10H17.458C17.458 8.89543 16.5626 8 15.458 8V10ZM11.958 10H15.458V8H11.958V10ZM10.458 5V8.5H12.458V5H10.458ZM11.958 8C12.2341 8 12.458 8.22386 12.458 8.5H10.458C10.458 9.32843 11.1296 10 11.958 10V8ZM12.458 11.5C12.458 11.7761 12.2341 12 11.958 12V10C11.1296 10 10.458 10.6716 10.458 11.5H12.458ZM8.95801 12C8.68187 12 8.45801 11.7761 8.45801 11.5H10.458C10.458 10.6716 9.78644 10 8.95801 10V12ZM8.45801 8.5C8.45801 8.22386 8.68187 8 8.95801 8V10C9.78644 10 10.458 9.32843 10.458 8.5H8.45801Z" fill="white" mask="url(#path-1-inside-1_3810_1990)"/>
</svg>
