<svg width="18" height="18" viewBox="0 0 18 18" fill="none" xmlns="http://www.w3.org/2000/svg">
<path fill-rule="evenodd" clip-rule="evenodd" d="M8.3809 0.989651C8.97129 0.399265 9.92849 0.399265 10.5189 0.98965L16.9328 7.40357C17.5232 7.99396 17.5232 8.95116 16.9328 9.54155C16.3424 10.1319 15.3852 10.1319 14.7948 9.54155L14.6855 9.43219L10.1043 14.8283L10.5189 15.2428C11.1092 15.8332 11.1092 16.7904 10.5189 17.3808C9.92847 17.9712 8.97127 17.9712 8.38088 17.3808L0.541642 9.54157C-0.0487428 8.95119 -0.0487417 7.99398 0.541644 7.4036C1.13203 6.81321 2.08923 6.81321 2.67962 7.4036L3.10121 7.8252L8.54676 3.29348L8.3809 3.12763C7.79052 2.53724 7.79052 1.58004 8.3809 0.989651Z" fill="#6C7C93"/>
</svg>
