<svg width="20" height="20" viewBox="0 0 20 20" fill="none" xmlns="http://www.w3.org/2000/svg">
<path fill-rule="evenodd" clip-rule="evenodd" d="M5.32456 0C2.74197 0 0.523084 1.6842 0.26354 4.25371C0.113257 5.74152 0 7.64425 0 10C0 12.3558 0.113257 14.2585 0.26354 15.7463C0.523084 18.3158 2.74197 20 5.32456 20H14.6754C17.258 20 19.4769 18.3158 19.7365 15.7463C19.8867 14.2585 20 12.3558 20 10C20 7.64425 19.8867 5.74152 19.7365 4.2537C19.4769 1.6842 17.258 0 14.6754 0H5.32456ZM11 5C11 4.44772 10.5523 4 10 4C9.44772 4 9 4.44772 9 5V8.5C9 8.77614 8.77614 9 8.5 9H5C4.44772 9 4 9.44772 4 10C4 10.5523 4.44772 11 5 11H8.5C8.77614 11 9 11.2239 9 11.5V15C9 15.5523 9.44771 16 10 16C10.5523 16 11 15.5523 11 15V11.5C11 11.2239 11.2239 11 11.5 11H15C15.5523 11 16 10.5523 16 10C16 9.44772 15.5523 9 15 9H11.5C11.2239 9 11 8.77614 11 8.5V5Z" fill="#6C7C93"/>
</svg>
