<svg width="38" height="38" viewBox="0 0 38 38" fill="none" xmlns="http://www.w3.org/2000/svg">
<g clip-path="url(#clip0_97_3310)">
<path d="M33.9704 9.2642H30.8825V33.9704H33.9704C35.6687 33.9704 37.0588 32.5798 37.0588 30.8815V12.3521C37.0588 10.6544 35.6687 9.2642 33.9704 9.2642Z" fill="#2BC155"/>
<path d="M24.7057 9.26421V6.17628C24.7057 4.47805 23.3155 3.08789 21.6178 3.08789H15.441C13.7432 3.08789 12.3531 4.47805 12.3531 6.17628V9.26421H9.26467V33.9704H27.7941V9.26421H24.7057ZM21.6178 9.26421H15.441V6.17582H21.6178V9.26421Z" fill="#2BC155"/>
<path d="M3.08839 9.2642C1.39016 9.2642 0 10.6544 0 12.3526V30.882C0 32.5802 1.39016 33.9708 3.08839 33.9708H6.17632V9.2642H3.08839Z" fill="#2BC155"/>
</g>
<defs>
<clipPath id="clip0_97_3310">
<rect width="37.0588" height="37.0588" fill="white"/>
</clipPath>
</defs>
</svg>
