<svg width="27" height="15" viewBox="0 0 27 15" fill="none" xmlns="http://www.w3.org/2000/svg">
<path d="M19.6216 0H7.44268C5.46876 0 3.57568 0.790176 2.17991 2.1967C0.784137 3.60322 0 5.51088 0 7.5C0 9.48912 0.784137 11.3968 2.17991 12.8033C3.57568 14.2098 5.46876 15 7.44268 15H19.6216C29.4595 14.6864 29.4595 0.313636 19.6216 0ZM14.8854 7.5C14.885 7.23129 14.9373 6.96514 15.0391 6.71681C15.141 6.46849 15.2905 6.24285 15.4791 6.05285C15.6676 5.86284 15.8915 5.71218 16.138 5.60952C16.3844 5.50685 16.6485 5.45419 16.9152 5.45455H19.6216C20.1547 5.46263 20.6632 5.68169 21.0373 6.06441C21.4114 6.44713 21.6211 6.96278 21.6211 7.5C21.6211 8.03722 21.4114 8.55287 21.0373 8.93559C20.6632 9.31831 20.1547 9.53737 19.6216 9.54545H16.9152C16.6485 9.54581 16.3844 9.49315 16.138 9.39048C15.8915 9.28782 15.6676 9.13716 15.4791 8.94715C15.2905 8.75714 15.141 8.53151 15.0391 8.28319C14.9373 8.03486 14.885 7.76871 14.8854 7.5Z" fill="#005DFF"/>
</svg>
