<svg width="21" height="21" viewBox="0 0 21 21" fill="none" xmlns="http://www.w3.org/2000/svg">
<path d="M10.5 0C4.70137 0 0 4.70137 0 10.5C0 16.2986 4.70137 21 10.5 21C16.2986 21 21 16.2986 21 10.5C21 4.70137 16.2986 0 10.5 0ZM15.3641 7.59544L10.3346 15.2828C10.3333 15.2841 10.3307 15.2854 10.3307 15.2867C10.3044 15.3261 10.29 15.3707 10.2572 15.4074C10.2113 15.4573 10.1522 15.4836 10.0997 15.5216C10.0866 15.5308 10.0734 15.5413 10.059 15.5505C9.97762 15.6017 9.89363 15.6358 9.80175 15.6581C9.77156 15.666 9.744 15.6739 9.7125 15.6791C9.6394 15.6892 9.56532 15.6901 9.492 15.6818C9.44021 15.6785 9.38882 15.6706 9.33844 15.6581C9.28646 15.6425 9.23595 15.6222 9.1875 15.5977C9.1455 15.5781 9.10087 15.5728 9.0615 15.5479C9.03263 15.5295 9.01688 15.5006 8.99194 15.4783C8.98144 15.4691 8.96831 15.4665 8.95781 15.4573L6.02963 12.7496C5.85606 12.583 5.7548 12.3549 5.74762 12.1143C5.74044 11.8738 5.8279 11.6401 5.99121 11.4634C6.15452 11.2866 6.38065 11.181 6.62099 11.1693C6.86132 11.1575 7.09669 11.2405 7.2765 11.4004L9.39619 13.3612L13.8259 6.59006C13.9592 6.38608 14.1681 6.24341 14.4066 6.19344C14.6451 6.14348 14.8937 6.1903 15.0977 6.32362C15.3017 6.45695 15.4443 6.66584 15.4943 6.90435C15.5443 7.14286 15.4974 7.39145 15.3641 7.59544Z" fill="#005DFF"/>
</svg>
