<svg width="27" height="27" viewBox="0 0 27 27" fill="none" xmlns="http://www.w3.org/2000/svg">
<path d="M23.815 14.823C23.8705 14.391 23.9121 13.959 23.9121 13.5C23.9121 13.041 23.8705 12.609 23.815 12.177L26.7434 9.9495C27.0071 9.747 27.0765 9.3825 26.9099 9.0855L24.1342 4.4145C23.9676 4.1175 23.5929 4.0095 23.2876 4.1175L19.8318 5.4675C19.1101 4.9275 18.3329 4.482 17.4863 4.1445L16.9589 0.567C16.9172 0.243 16.6258 0 16.2788 0H10.7273C10.3804 0 10.0889 0.243 10.0473 0.567L9.51987 4.1445C8.67327 4.482 7.89606 4.941 7.17437 5.4675L3.71857 4.1175C3.39936 3.996 3.03851 4.1175 2.87197 4.4145L0.0962233 9.0855C-0.0842 9.3825 -0.000927518 9.747 0.262768 9.9495L3.19118 12.177C3.13566 12.609 3.09403 13.0545 3.09403 13.5C3.09403 13.9455 3.13566 14.391 3.19118 14.823L0.262768 17.0505C-0.000927518 17.253 -0.0703213 17.6175 0.0962233 17.9145L2.87197 22.5855C3.03851 22.8825 3.41324 22.9905 3.71857 22.8825L7.17437 21.5325C7.89606 22.0725 8.67327 22.518 9.51987 22.8555L10.0473 26.433C10.0889 26.757 10.3804 27 10.7273 27H16.2788C16.6258 27 16.9172 26.757 16.9589 26.433L17.4863 22.8555C18.3329 22.518 19.1101 22.059 19.8318 21.5325L23.2876 22.8825C23.6068 23.004 23.9676 22.8825 24.1342 22.5855L26.9099 17.9145C27.0765 17.6175 27.0071 17.253 26.7434 17.0505L23.815 14.823ZM13.5031 18.225C10.8245 18.225 8.64551 16.1055 8.64551 13.5C8.64551 10.8945 10.8245 8.775 13.5031 8.775C16.1817 8.775 18.3606 10.8945 18.3606 13.5C18.3606 16.1055 16.1817 18.225 13.5031 18.225Z" fill="#005DFF"/>
</svg>
