<svg width="25" height="24" viewBox="0 0 25 24" fill="none" xmlns="http://www.w3.org/2000/svg">
<path d="M20.0239 2H4.30961C3.12818 2 2.16675 2.96143 2.16675 4.14286V14.1429C2.16675 15.3243 3.12818 16.2857 4.30961 16.2857H20.0239C21.2053 16.2857 22.1667 15.3243 22.1667 14.1429V4.14286C22.1667 2.96143 21.2053 2 20.0239 2ZM20.7382 14.1429C20.7382 14.5371 20.4175 14.8571 20.0239 14.8571H4.30961C3.91603 14.8571 3.59532 14.5371 3.59532 14.1429V4.14286C3.59532 3.74929 3.91603 3.42857 4.30961 3.42857H20.0239C20.4175 3.42857 20.7382 3.74929 20.7382 4.14286V14.1429ZM21.4525 19.1429H7.74961C7.45389 18.3136 6.66818 17.7143 5.73818 17.7143C4.80818 17.7143 4.02246 18.3136 3.72675 19.1429H2.88103C2.48675 19.1429 2.16675 19.4621 2.16675 19.8571C2.16675 20.2521 2.48675 20.5714 2.88103 20.5714H3.72675C4.02246 21.4007 4.80818 22 5.73818 22C6.66818 22 7.45389 21.4007 7.74961 20.5714H21.4525C21.8467 20.5714 22.1667 20.2521 22.1667 19.8571C22.1667 19.4621 21.8467 19.1429 21.4525 19.1429ZM5.73818 20.5714C5.34461 20.5714 5.02389 20.2514 5.02389 19.8571C5.02389 19.4629 5.34461 19.1429 5.73818 19.1429C6.13175 19.1429 6.45246 19.4629 6.45246 19.8571C6.45246 20.2514 6.13175 20.5714 5.73818 20.5714ZM10.7382 12.7536C10.4989 12.7536 10.2596 12.6943 10.0432 12.5736C9.59103 12.3214 9.31032 11.8436 9.31032 11.3257V6.96143C9.31032 6.44357 9.59175 5.965 10.0432 5.71357C10.4953 5.46143 11.0503 5.47429 11.4896 5.74643L15.0175 7.92857C15.4417 8.19143 15.6946 8.645 15.6946 9.14357C15.6946 9.64214 15.4417 10.0957 15.0182 10.3586L11.4903 12.5414C11.261 12.6836 10.9996 12.7543 10.7389 12.7543L10.7382 12.7536ZM10.7346 6.95857L10.7382 11.325L14.266 9.14286L10.7346 6.95857Z" fill="#3481ED"/>
</svg>
